<?xml version="1.0" encoding="UTF-8" standalone="no"?>
<svg
   xmlns:dc="http://purl.org/dc/elements/1.1/"
   xmlns:cc="http://creativecommons.org/ns#"
   xmlns:rdf="http://www.w3.org/1999/02/22-rdf-syntax-ns#"
   xmlns:svg="http://www.w3.org/2000/svg"
   xmlns="http://www.w3.org/2000/svg"
   xmlns:sodipodi="http://sodipodi.sourceforge.net/DTD/sodipodi-0.dtd"
   xmlns:inkscape="http://www.inkscape.org/namespaces/inkscape"
   width="50"
   height="50"
   viewBox="0 0 1190 1190"
   version="1.1"
   id="svg4"
   sodipodi:docname="sine.svg"
   inkscape:version="0.92.3 (2405546, 2018-03-11)"
   inkscape:label="Sine">
  <metadata
     id="metadata10">
    <rdf:RDF>
      <cc:Work
         rdf:about="">
        <dc:format>image/svg+xml</dc:format>
        <dc:type
           rdf:resource="http://purl.org/dc/dcmitype/StillImage" />
        <dc:title></dc:title>
      </cc:Work>
    </rdf:RDF>
  </metadata>
  <defs
     id="defs8" />
  <sodipodi:namedview
     pagecolor="#ffffff"
     bordercolor="#666666"
     borderopacity="1"
     objecttolerance="10"
     gridtolerance="10"
     guidetolerance="10"
     inkscape:pageopacity="0"
     inkscape:pageshadow="2"
     inkscape:window-width="1547"
     inkscape:window-height="1090"
     id="namedview6"
     showgrid="false"
     inkscape:zoom="18.663667"
     inkscape:cx="8.5589226"
     inkscape:cy="27.408098"
     inkscape:window-x="496"
     inkscape:window-y="156"
     inkscape:window-maximized="0"
     inkscape:current-layer="layer3"
     fit-margin-top="-0.5"
     scale-x="23.8"
     viewbox-width="8399.71" />
  <g
     inkscape:groupmode="layer"
     id="layer3"
     inkscape:label="Background">
    <rect
       style="fill:#d75813;fill-opacity:1;stroke-width:0;stroke-miterlimit:4;stroke-dasharray:none"
       id="rect11"
       width="1193.8589"
       height="1194.2964"
       x="-1.8034121"
       y="0.27622494" />
  </g>
  <g
     inkscape:groupmode="layer"
     id="layer2"
     inkscape:label="Sine"
     style="display:inline">
    <path
       inkscape:connector-curvature="0"
       style="color:#000000;fill:none;stroke:#000000;stroke-width:47.59999847;stroke-linecap:round;stroke-linejoin:round;stroke-miterlimit:4;stroke-dasharray:none;stroke-opacity:1"
       id="path2487"
       d="m 136.00402,595.0028 9,-22 10,-22 9,-21 9,-21 9,-20 10,-19 9,-18 9,-17 9,-15 10,-13 9,-12 9,-10 10,-9 9,-6 9,-4 9,-2 h 10 l 9,2 9,4 9,6 10,9 9,10 9,12 10,13 9,15 9,17 9,18 10,19 9,20 9,21 9,21 10,22 9,22 9,22 10,22 9,21 9,21 9,20 10,19 9,18 9,17 9,15 10,13 9,12 9,10 10,9 9,6 9,4 9,2 h 10 l 9,-2 9,-4 9,-6 10,-9 9,-10 9,-12 10,-13 9,-15 9,-17 9,-18 10,-19 9,-20 9,-21 9,-21 10,-22 9,-22 9,-22 10,-22 9,-21 9,-21 9,-20 10,-19 9,-18 9,-17 9,-15 10,-13 9,-12 9,-10 10,-9 9,-6 9,-4 9,-2 h 10 l 9,2 9,4 9,6 10,9 9,10 9,12 10,13 9,15 9,17 9,18 9.99998,19 9,20 9,21 9,21 10,22 9,22" />
  </g>
</svg>
